<svg width="81" height="81" viewBox="0 0 81 81" fill="none" xmlns="http://www.w3.org/2000/svg" class="mt-4 mb-2 text-reece-blue-full"><path d="M60.2265 17.699V77.699L55.2266 80.199L55.2366 20.199L60.2265 17.699Z" fill="url(#paint0_linear_3442_51095)"></path><path d="M60.2263 17.6992L55.2363 20.1992L20.2266 2.69922L25.2165 0.199219L60.2263 17.6992Z" fill="url(#paint1_linear_3442_51095)"></path><path d="M20.2266 2.69896V62.6989L55.2263 80.1989L55.2363 20.199L20.2266 2.69896ZM46.4764 57.0789L27.7265 47.6989V22.699L46.4764 32.0789V57.0789Z" fill="#013767" fill-opacity="0.1"></path><path d="M46.476 32.079V52.079L32.7261 45.199V25.199L46.476 32.079Z" fill="#013767" fill-opacity="0.4"></path><path d="M46.4764 52.079V57.079L27.7266 47.699L32.7265 45.199L46.4764 52.079Z" fill="#013767" fill-opacity="0.3"></path><path d="M32.7265 25.199V45.199L27.7266 47.699V22.699L32.7265 25.199Z" fill="#013767" fill-opacity="0.6"></path><defs><linearGradient id="paint0_linear_3442_51095" x1="55.2266" y1="17.699" x2="65.7565" y2="18.686" gradientUnits="userSpaceOnUse"><stop stop-color="#013767" stop-opacity="0.6"></stop><stop offset="1" stop-color="#013767" stop-opacity="0.3"></stop></linearGradient><linearGradient id="paint1_linear_3442_51095" x1="20.2266" y1="0.199219" x2="33.318" y2="30.8769" gradientUnits="userSpaceOnUse"><stop stop-color="#013767" stop-opacity="0.4"></stop><stop offset="1" stop-color="#013767" stop-opacity="0.2"></stop></linearGradient></defs></svg>